<?xml version="1.0" encoding="utf-8"?>
<!-- Generator: Adobe Illustrator 16.0.0, SVG Export Plug-In . SVG Version: 6.00 Build 0)  -->
<!DOCTYPE svg PUBLIC "-//W3C//DTD SVG 1.1//EN" "http://www.w3.org/Graphics/SVG/1.1/DTD/svg11.dtd">
<svg version="1.1" id="Слой_1" xmlns="http://www.w3.org/2000/svg" xmlns:xlink="http://www.w3.org/1999/xlink" x="0px" y="0px"
	 width="660.557px" height="309.799px" viewBox="0 0 660.557 309.799" enable-background="new 0 0 660.557 309.799"
	 xml:space="preserve">
<g>
	<rect x="116.633" y="43.492" transform="matrix(-0.866 0.5 -0.5 -0.866 269.9031 17.0626)" width="32.066" height="2.401"/>
	<path d="M107.212,82.835h2.4V47.416l32.354-18.678l-1.199-2.08l-32.355,18.679L76.058,26.657l-1.199,2.08l32.354,18.679V82.835z
		 M108.411,46.724L108.411,46.724L108.411,46.724L108.411,46.724z"/>
	<rect x="128.377" y="111.935" transform="matrix(-0.866 -0.5 0.5 -0.866 212.9026 283.318)" width="32.066" height="2.399"/>
	<rect x="215.49" y="108.544" transform="matrix(-0.866 -0.5 0.5 -0.866 389.8093 323.9377)" width="45.629" height="2.399"/>
	<rect x="296.376" y="52.71" width="2.4" height="45.627"/>
	
		<rect x="237.104" y="18.487" transform="matrix(-0.4995 -0.8663 0.8663 -0.4995 321.5475 268.3817)" width="2.401" height="45.629"/>
	<path d="M358.958,131.083L358.958,131.083l-1.131,0.653l-48.684-28.106V48.724v-2l0.002-0.693l-0.602-0.348l-49.883-28.799
		l-0.6-0.346l-0.6,0.346l-1.732,1l0,0l-47.552,27.453l-32.354-18.68l-1.199,2.08l32.354,18.678v56.216l-48.684,28.105
		l-32.354-18.679l-1.199,2.078l32.354,18.681v35.417h2.4v-35.417l48.683-28.108l48.683,28.108v56.906h2.4v-56.905l48.684-28.108
		l49.283,28.455l0.598,0.346l0.602-0.346l32.953-19.027l-1.199-2.078L358.958,131.083z M306.744,103.631l-48.682,28.105
		l-48.684-28.105V47.416l48.683-28.107l1.131,0.654l0,0l46.419,26.801l0,0l1.131,0.653v1.308V103.631z M258.062,133.123
		L258.062,133.123L258.062,133.123L258.062,133.123z M208.179,46.724L208.179,46.724L208.179,46.724L208.179,46.724z
		 M158.295,133.124L158.295,133.124L158.295,133.124L158.295,133.124z"/>
	<rect x="466.763" y="139.108" width="2.398" height="45.629"/>
	<rect x="526.034" y="173.33" transform="matrix(0.4998 0.8661 -0.8661 0.4998 433.5998 -358.546)" width="2.399" height="45.628"/>
	<rect x="504.419" y="126.502" transform="matrix(0.866 0.5 -0.5 0.866 134.4877 -246.5088)" width="45.629" height="2.401"/>
	<path d="M588.314,116.636l-1.199-2.078l-29.756,17.179l-47.55-27.452l0.001-0.001l-1.734-1l-0.598-0.346l-0.602,0.346
		l-49.283,28.453l-32.354-18.679l-1.199,2.078l32.352,18.68v54.906v2v0.695l0.602,0.344l1.73,1v-0.001l47.551,27.454v35.031h2.402
		v-35.031l48.682-28.107l29.756,17.182l1.199-2.078l-29.754-17.18v-56.214L588.314,116.636z M557.36,133.124h-0.002H557.36
		L557.36,133.124z M457.594,133.124h-0.002H457.594L457.594,133.124z M458.794,133.816l47.551-27.454v0l1.131-0.654l48.686,28.109
		v56.209l-48.686,28.11l-48.682-28.107v-1.309V133.816z"/>
	
		<rect x="640.747" y="106.834" transform="matrix(0.4998 -0.8661 0.8661 0.4998 213.3788 618.2133)" width="2.399" height="35.052"/>
	<rect x="606.044" y="240.757" width="2.398" height="36.367"/>
	
		<rect x="471.57" y="279.633" transform="matrix(-0.4991 -0.8665 0.8665 -0.4991 451.2373 855.1487)" width="2.403" height="35.052"/>
	<polygon points="150.619,8.304 165.326,31.526 169.681,31.526 169.681,2.835 165.99,2.835 165.99,26.077 151.498,2.835 
		146.908,2.835 146.908,31.526 150.619,31.526 	"/>
	<polygon points="116.107,112.478 101.615,89.235 97.025,89.235 97.025,117.927 100.736,117.927 100.736,94.704 115.443,117.927 
		119.798,117.927 119.798,89.235 116.107,89.235 	"/>
	<polygon points="66.224,26.077 51.732,2.835 47.142,2.835 47.142,31.526 50.853,31.526 50.853,8.304 65.56,31.526 69.916,31.526 
		69.916,2.835 66.224,2.835 	"/>
	<polygon points="21.681,14.69 6.759,14.69 6.759,2.835 2.833,2.835 2.833,31.526 6.759,31.526 6.759,18.108 21.681,18.108 
		21.681,31.526 25.607,31.526 25.607,2.835 21.681,2.835 	"/>
	<path d="M34.078,33.132c0.51-0.447,1.213-0.916,2.105-1.408l1.873-1.039c1.65-0.92,2.793-1.705,3.432-2.352
		c1.104-1.111,1.654-2.453,1.654-4.02c0-1.486-0.518-2.834-1.551-4.047c-1.035-1.213-2.674-1.818-4.916-1.818
		c-2.697,0-4.58,0.947-5.646,2.844c-0.602,1.074-0.916,2.465-0.943,4.17h2.502c0.037-1.213,0.229-2.16,0.574-2.844
		c0.646-1.275,1.814-1.914,3.5-1.914c1.139,0,2.051,0.334,2.734,1.004s1.025,1.576,1.025,2.715c0,0.975-0.373,1.842-1.121,2.598
		c-0.475,0.482-1.299,1.066-2.475,1.75l-2.625,1.518c-1.76,1.02-2.941,2.154-3.547,3.404c-0.607,1.248-0.955,2.717-1.047,4.402
		h13.439v-2.324H32.355C32.591,34.804,33.166,33.925,34.078,33.132z"/>
	<polygon points="165.99,198.878 151.498,175.636 146.908,175.636 146.908,204.327 150.619,204.327 150.619,181.104 
		165.326,204.327 169.681,204.327 169.681,175.636 165.99,175.636 	"/>
	<polygon points="192.529,187.491 177.607,187.491 177.607,175.636 173.681,175.636 173.681,204.327 177.607,204.327 
		177.607,190.909 192.529,190.909 192.529,204.327 196.455,204.327 196.455,175.636 192.529,175.636 	"/>
	<path d="M204.925,205.933c0.512-0.449,1.213-0.918,2.105-1.41l1.873-1.039c1.65-0.918,2.795-1.703,3.432-2.352
		c1.104-1.109,1.654-2.449,1.654-4.02c0-1.484-0.516-2.832-1.551-4.047c-1.035-1.211-2.674-1.816-4.916-1.816
		c-2.697,0-4.58,0.945-5.646,2.844c-0.602,1.074-0.916,2.465-0.943,4.168h2.502c0.037-1.211,0.229-2.16,0.574-2.844
		c0.648-1.273,1.814-1.914,3.5-1.914c1.141,0,2.051,0.336,2.734,1.004c0.684,0.672,1.025,1.578,1.025,2.715
		c0,0.977-0.373,1.844-1.121,2.598c-0.473,0.484-1.299,1.066-2.475,1.75l-2.625,1.52c-1.758,1.02-2.941,2.156-3.547,3.402
		c-0.605,1.25-0.955,2.719-1.047,4.402h13.439v-2.324h-10.691C203.441,207.604,204.015,206.726,204.925,205.933z"/>
	<polygon points="415.404,112.478 400.912,89.235 396.326,89.235 396.326,117.927 400.037,117.927 400.037,94.704 414.74,117.927 
		419.099,117.927 419.099,89.235 415.404,89.235 	"/>
	<polygon points="415.169,68.399 400.248,68.399 400.248,56.544 396.326,56.544 396.326,85.235 400.248,85.235 400.248,71.817 
		415.169,71.817 415.169,85.235 419.099,85.235 419.099,56.544 415.169,56.544 	"/>
	<path d="M607.126,88.845c-4.844,0-8.504,1.771-10.977,5.312c-1.93,2.76-2.891,6.08-2.891,9.961c0,4.297,1.125,7.852,3.379,10.664
		c2.523,2.916,5.996,4.375,10.41,4.375c4.727,0,8.363-1.666,10.918-5c2.172-2.838,3.262-6.4,3.262-10.684
		c0-3.959-0.953-7.207-2.852-9.746C615.939,90.472,612.189,88.845,607.126,88.845z M614.947,111.999
		c-1.527,2.455-4.008,3.682-7.43,3.682c-3.609,0-6.215-1.09-7.824-3.271c-1.605-2.182-2.41-4.859-2.41-8.037
		c0-3.971,0.938-6.977,2.812-9.014s4.297-3.057,7.266-3.057c3.059,0,5.473,1.029,7.234,3.086c1.766,2.057,2.648,4.771,2.648,8.145
		C617.244,106.722,616.478,109.544,614.947,111.999z"/>
	<path d="M607.126,204.046c-4.844,0-8.504,1.77-10.977,5.312c-1.93,2.758-2.891,6.078-2.891,9.961c0,4.297,1.125,7.852,3.379,10.664
		c2.523,2.914,5.996,4.375,10.41,4.375c4.727,0,8.363-1.668,10.918-5c2.172-2.84,3.262-6.402,3.262-10.684
		c0-3.961-0.953-7.207-2.852-9.746C615.939,205.671,612.189,204.046,607.126,204.046z M614.947,227.198
		c-1.527,2.453-4.008,3.684-7.43,3.684c-3.609,0-6.215-1.094-7.824-3.273c-1.605-2.18-2.41-4.859-2.41-8.035
		c0-3.973,0.938-6.977,2.812-9.016s4.297-3.055,7.266-3.055c3.059,0,5.473,1.027,7.234,3.086c1.766,2.055,2.648,4.77,2.648,8.145
		C617.244,221.921,616.478,224.745,614.947,227.198z"/>
	<path d="M507.361,261.644c-4.844,0-8.504,1.773-10.977,5.312c-1.93,2.762-2.891,6.082-2.891,9.961
		c0,4.297,1.125,7.852,3.379,10.664c2.523,2.918,5.996,4.375,10.41,4.375c4.727,0,8.363-1.664,10.918-5
		c2.172-2.836,3.262-6.398,3.262-10.684c0-3.957-0.953-7.207-2.852-9.746C516.173,263.272,512.423,261.644,507.361,261.644z
		 M515.181,284.8c-1.531,2.453-4.008,3.68-7.43,3.68c-3.609,0-6.215-1.09-7.824-3.27c-1.609-2.184-2.41-4.859-2.41-8.039
		c0-3.969,0.938-6.977,2.812-9.012c1.875-2.039,4.297-3.059,7.266-3.059c3.059,0,5.469,1.031,7.234,3.086
		c1.766,2.059,2.648,4.773,2.648,8.145C517.478,279.522,516.712,282.343,515.181,284.8z"/>
</g>
</svg>
